<svg xmlns="http://www.w3.org/2000/svg" version="1.1" xmlns:xlink="http://www.w3.org/1999/xlink" xmlns:svgjs="http://svgjs.dev/svgjs" width="1500" height="1500" viewBox="0 0 1500 1500"><g transform="matrix(1,0,0,1,-0.21332335329316265,-0.21332335329350371)"><svg viewBox="0 0 334 334" data-background-color="#ffffff" preserveAspectRatio="xMidYMid meet" height="1500" width="1500" xmlns="http://www.w3.org/2000/svg" xmlns:xlink="http://www.w3.org/1999/xlink"><g id="tight-bounds" transform="matrix(1,0,0,1,0.04749999999998522,0.04750000000001364)"><svg viewBox="0 0 333.90454557049503 333.90454557049503" height="333.90454557049503" width="333.90454557049503"><g><svg></svg></g><g><svg viewBox="0 0 333.90454557049503 333.90454557049503" height="333.90454557049503" width="333.90454557049503"><g><path d="M0 166.952c0-92.205 74.747-166.952 166.952-166.952 92.205 0 166.952 74.747 166.953 166.952 0 92.205-74.747 166.952-166.953 166.953-92.205 0-166.952-74.747-166.952-166.953zM166.952 328.74c89.353 0 161.788-72.435 161.788-161.788 0-89.353-72.435-161.788-161.788-161.787-89.353 0-161.788 72.435-161.787 161.787 0 89.353 72.435 161.788 161.787 161.788z" data-fill-palette-color="tertiary" fill="#915eff" stroke="transparent"></path><ellipse rx="160.27418187383762" ry="160.27418187383762" cx="166.95227278524752" cy="166.95227278524752" fill="#915eff" stroke="transparent" stroke-width="0" fill-opacity="1" data-fill-palette-color="tertiary"></ellipse></g><g transform="matrix(1,0,0,1,87.22546446877641,71.17305217166896)"><svg viewBox="0 0 159.45361663294221 191.55844122715712" height="191.55844122715712" width="159.45361663294221"><g><svg viewBox="0 0 159.45361663294221 191.55844122715712" height="191.55844122715712" width="159.45361663294221"><g><svg viewBox="0 0 213.1584412271571 256.07634118377894" height="191.55844122715712" width="159.45361663294221"><g transform="matrix(1,0,0,1,0,141.53958047980367)"><svg viewBox="0 0 213.1584412271571 114.53676070397525" height="114.53676070397525" width="213.1584412271571"><g id="textblocktransform"><svg viewBox="0 0 213.1584412271571 114.53676070397525" height="114.53676070397525" width="213.1584412271571" id="textblock"><g><svg viewBox="0 0 213.1584412271571 76.55811650208629" height="76.55811650208629" width="213.1584412271571"><g transform="matrix(1,0,0,1,0,0)"><svg width="213.1584412271571" viewBox="2.55 -38 123.89 44.5" height="76.55811650208629" data-palette-color="#ffffff"><path d="M50.15-30.5L50.15-30.5Q40.05-35.5 33.9-35.5 27.75-35.5 23.6-32L23.6-32Q19.65-28.65 19.65-24.8L19.65-24.8Q19.65-22.8 21.1-21.9L21.1-21.9Q23.05-20.8 24.8-20.8L24.8-20.8Q25.45-20.8 26.1-20.95L26.1-20.95Q28.4-21.5 30-22.8 31.6-24.1 31.6-24.9 31.6-25.7 32.08-26 32.55-26.3 32.55-25.8L32.55-25.8Q32.55-25.5 32.4-25.1L32.4-25.1Q31.35-21.55 27.5-20.25L27.5-20.25Q25.85-19.7 24.1-19.7 22.35-19.7 20.65-20.75L20.65-20.75Q17.45-22.55 17.45-26.25L17.45-26.25Q17.45-30.7 21.55-34.35 25.65-38 31.55-38L31.55-38Q34.45-38 37.4-37.15L37.4-37.15Q44.8-35.15 50.8-31.35L50.8-31.35Q52.35-33.05 54-33.05L54-33.05Q55.85-33.05 55.9-31.8L55.9-31.8Q55.95-31.25 55.55-31.3L55.55-31.3Q55.3-31.35 55-31.7L55-31.7Q54.6-31.85 54.25-31.85L54.25-31.85Q53.15-31.85 52-30.75L52-30.75Q55.7-28.9 60.7-27.6L60.7-27.6Q62.65-27.15 63.8-27.15 64.95-27.15 65.55-27.2L65.55-27.2Q67.75-27.45 68.4-28.85L68.4-28.85Q68.75-29.6 69.03-29.78 69.3-29.95 69.35-29.6L69.35-29.6Q69.35-29.45 69.35-29.2L69.35-29.2Q69.35-27.15 67.25-26.1L67.25-26.1Q65.95-25.45 64.8-25.45 63.65-25.45 62.3-25.68 60.95-25.9 58.8-26.6 56.65-27.3 55.3-27.9 53.95-28.5 52.65-29.15L52.65-29.15 51.25-29.85Q48.65-26.9 45.7-19.7L45.7-19.7Q44.75-17.3 44.6-16.95L44.6-16.95Q47.5-16.55 49.95-16.55 52.4-16.55 53.83-16.63 55.25-16.7 55.3-16.3L55.3-16.3Q55.35-15.2 47.85-15.2L47.85-15.2Q45.45-15.2 44-15.4L44-15.4Q40.9-6.9 37.8-2.8L37.8-2.8Q36.5-1.1 34.55 0.78 32.6 2.65 30.4 3.8L30.4 3.8Q25.45 6.5 19.35 6.5 13.25 6.5 9 3.8L9 3.8Q2.55-0.2 2.55-7.75L2.55-7.75Q2.55-10.3 3.4-13.2L3.4-13.2Q4-15.1 5.63-16.55 7.25-18 8.35-18.32 9.45-18.65 9.38-18.45 9.3-18.25 7.65-17.1L7.65-17.1Q4.4-14.75 3.8-11.3L3.8-11.3Q3.55-10.05 3.55-8.4 3.55-6.75 4.3-4.8L4.3-4.8Q6.35 0.5 12.8 3L12.8 3Q15.85 4.15 19.35 4.15 22.85 4.15 26.3 2.75 29.75 1.35 32.7-1.45L32.7-1.45Q38.45-6.9 42.2-15.55L42.2-15.55 39-15.6Q33.15-15.6 31.3-12.9L31.3-12.9Q30.85-12.35 30.58-12.63 30.3-12.9 30.5-13.35L30.5-13.35Q31.6-15.75 33.6-16.8 35.6-17.85 37.58-17.85 39.55-17.85 42.9-17.4L42.9-17.4Q44.45-21.2 46.83-25.3 49.2-29.4 50.15-30.5ZM70.45-13.55Q69.55-12.65 67.9-9.47 66.25-6.3 65.92-4.73 65.6-3.15 65.6-2.18 65.6-1.2 66.35-1.2L66.35-1.2Q67.3-1.2 68.7-2.95L68.7-2.95Q70.75-5.5 72.75-9.6L72.75-9.6Q72.95-10.05 73.2-10.1L73.2-10.1Q73.6-10.25 73.6-9.8L73.6-9.8Q73.6-9.55 73.45-9.2L73.45-9.2Q68.85 0.1 65.7 0.1L65.7 0.1Q64.25 0.1 63.35-1.3L63.35-1.3Q62.9-2.05 62.9-3.3 62.9-4.55 63.4-6.35L63.4-6.35Q59.4 0.1 56.5 0.1L56.5 0.1Q55.7 0.1 55.05-0.4L55.05-0.4Q53.55-1.45 53.55-4L53.55-4Q53.55-8.9 57.8-13.95L57.8-13.95Q60.2-16.75 63.7-17.6L63.7-17.6Q64.65-17.85 65.5-17.85L65.5-17.85Q67.8-17.85 69.4-16.25L69.4-16.25Q69.9-15.7 69.7-15.2 69.5-14.7 68.85-14.8L68.85-14.8Q68.3-16.6 66.45-16.6L66.45-16.6Q64.3-16.6 61.15-13.2L61.15-13.2Q59.35-11.2 57.8-8.5L57.8-8.5Q55.85-5.25 55.85-3.3 55.85-1.35 57.1-1.35L57.1-1.35Q60.1-1.35 64.95-10.55L64.95-10.55Q65.9-12.4 66.55-13.08 67.2-13.75 68.2-13.75L68.2-13.75Q68.4-13.75 69.22-13.6 70.05-13.45 70.45-13.55L70.45-13.55ZM71.5-4L71.5-4Q71.5-8.15 75.5-17.9L75.5-17.9 72.9-17.9Q72.65-17.9 72.57-18.18 72.5-18.45 72.62-18.73 72.75-19 73-19L73-19 76-19Q77.8-22.95 79.35-25.6 80.9-28.25 82.2-29.18 83.5-30.1 84.07-30.1 84.65-30.1 84.9-30L84.9-30Q86.05-29.45 86.05-27.73 86.05-26 84.9-23.55 83.75-21.1 82.65-19L82.65-19 85.05-19Q85.3-19 85.37-18.73 85.45-18.45 85.32-18.18 85.2-17.9 84.95-17.9L84.95-17.9 82.05-17.9Q79.3-13.25 75.4-9.65L75.4-9.65 74.25-4.55Q74.1-3.9 74.1-3.28 74.1-2.65 74.45-2 74.8-1.35 75.55-1.35L75.55-1.35Q76.4-1.35 77.45-1.95L77.45-1.95Q79.85-3.75 82.75-9.5L82.75-9.5Q82.95-9.95 83.22-10.05 83.5-10.15 83.55-9.93 83.6-9.7 83.4-9.2L83.4-9.2Q81.75-5.75 80.8-4.3L80.8-4.3Q78.1 0.05 75.05 0.05L75.05 0.05Q73.5 0.05 72.5-1.1 71.5-2.25 71.5-4ZM79.05-19L81.55-19Q84.85-24.9 84.85-27.2L84.85-27.2Q84.85-28.2 84.5-28.2L84.5-28.2Q83.95-28.2 82.82-26.6 81.7-25 79.05-19L79.05-19ZM80.9-17.9L80.9-17.9 78.55-17.9Q77.95-16.5 75.85-11.25L75.85-11.25Q78.55-14.05 80.9-17.9ZM106.39-16.4L106.39-16.4Q100.29-5.55 100.29-2.4L100.29-2.4Q100.29-1 101.24-1L101.24-1Q102.44-1 103.99-2.8L103.99-2.8Q106.34-5.65 108.09-9.65L108.09-9.65Q108.39-10.35 108.69-10.2 108.99-10.05 108.99-9.8 108.99-9.55 108.49-8.55 107.99-7.55 107.69-6.95 107.39-6.35 106.37-4.65 105.34-2.95 104.62-2.15 103.89-1.35 102.77-0.58 101.64 0.2 100.22 0.2 98.79 0.2 97.79-1.2L97.79-1.2Q97.34-1.85 97.34-2.98 97.34-4.1 97.84-5.7 98.34-7.3 100.59-10.9L100.59-10.9Q101.14-11.8 101.14-12.33 101.14-12.85 100.32-12.85 99.49-12.85 97.34-10.85 95.19-8.85 92.82-5.45 90.44-2.05 89.99 0L89.99 0Q89.14 0 88.74-0.7 88.34-1.4 88.34-1.9L88.34-1.9Q88.34-3.95 91.09-9.7L91.09-9.7Q91.99-11.6 92.04-12.28 92.09-12.95 91.87-12.98 91.64-13 91.24-12.8L91.24-12.8Q90.34-12.35 88.49-10.6L88.49-10.6Q84.99-7.4 81.59-0.85L81.59-0.85Q81.34-0.3 80.97-0.18 80.59-0.05 79.49 0 78.39 0.05 78.04 0.25L78.04 0.25Q78.94-1.5 81.19-6.3L81.19-6.3Q85.24-14.9 86.59-16.2L86.59-16.2Q87.19-16.8 88.24-16.8L88.24-16.8Q88.44-16.8 89.27-16.65 90.09-16.5 90.49-16.6L90.49-16.6Q88.64-15.6 84.44-7.2L84.44-7.2Q86.79-10.1 87.82-11 88.84-11.9 89.34-12.35 89.84-12.8 90.12-13.05 90.39-13.3 90.92-13.78 91.44-14.25 91.72-14.48 91.99-14.7 92.49-15.1 92.99-15.5 93.27-15.63 93.54-15.75 94.02-16.05 94.49-16.35 94.72-16.35 94.94-16.35 95.34-16.48 95.74-16.6 95.89-16.4L95.89-16.4Q96.89-16 96.89-15.15L96.89-15.15Q96.89-14.4 95.19-11.3 93.49-8.2 92.99-7.2L92.99-7.2Q95.19-9.95 97.19-11.73 99.19-13.5 101.92-15 104.64-16.5 105.89-16.5L105.89-16.5Q106.19-16.5 106.39-16.4ZM123.29-13.55Q122.39-12.65 120.74-9.47 119.09-6.3 118.77-4.73 118.44-3.15 118.44-2.18 118.44-1.2 119.19-1.2L119.19-1.2Q120.14-1.2 121.54-2.95L121.54-2.95Q123.59-5.5 125.59-9.6L125.59-9.6Q125.79-10.05 126.04-10.1L126.04-10.1Q126.44-10.25 126.44-9.8L126.44-9.8Q126.44-9.55 126.29-9.2L126.29-9.2Q121.69 0.1 118.54 0.1L118.54 0.1Q117.09 0.1 116.19-1.3L116.19-1.3Q115.74-2.05 115.74-3.3 115.74-4.55 116.24-6.35L116.24-6.35Q112.24 0.1 109.34 0.1L109.34 0.1Q108.54 0.1 107.89-0.4L107.89-0.4Q106.39-1.45 106.39-4L106.39-4Q106.39-8.9 110.64-13.95L110.64-13.95Q113.04-16.75 116.54-17.6L116.54-17.6Q117.49-17.85 118.34-17.85L118.34-17.85Q120.64-17.85 122.24-16.25L122.24-16.25Q122.74-15.7 122.54-15.2 122.34-14.7 121.69-14.8L121.69-14.8Q121.14-16.6 119.29-16.6L119.29-16.6Q117.14-16.6 113.99-13.2L113.99-13.2Q112.19-11.2 110.64-8.5L110.64-8.5Q108.69-5.25 108.69-3.3 108.69-1.35 109.94-1.35L109.94-1.35Q112.94-1.35 117.79-10.55L117.79-10.55Q118.74-12.4 119.39-13.08 120.04-13.75 121.04-13.75L121.04-13.75Q121.24-13.75 122.07-13.6 122.89-13.45 123.29-13.55L123.29-13.55Z" opacity="1" transform="matrix(1,0,0,1,0,0)" fill="#ffffff" class="wordmark-text-0" data-fill-palette-color="quaternary" id="text-0"></path></svg></g></svg></g><g transform="matrix(1,0,0,1,0,94.63165041343282)"><svg viewBox="0 0 213.1584412271571 19.905110290542435" height="19.905110290542435" width="213.1584412271571"><g transform="matrix(1,0,0,1,0,0)"><svg width="213.1584412271571" viewBox="4.15 -52.9 918.27 85.75" height="19.905110290542435" data-palette-color="#ffffff"><path d="M31.1-36.25Q31.4-36.2 31.55-35.95L31.55-35.95Q31.15-35.45 31-34.43 30.85-33.4 30.85-33.25L30.85-33.25Q30.7-32.4 30.1-32.4L30.1-32.4Q27.9-32.4 21.4-32.8L21.4-32.8Q16-33.1 15.25-33.1L15.25-33.1Q14.25-33.1 13.98-32.9 13.7-32.7 13.5-32.05L13.5-32.05Q13-30.35 10.55-18.3L10.55-18.3Q13.95-18.1 16.7-18.1L16.7-18.1Q23.4-18.1 27.5-19.3L27.5-19.3 27.7-19.1Q27.55-18.8 27.3-17.75 27.05-16.7 27.05-16.15L27.05-16.15Q24.6-16.15 22.25-16.2L22.25-16.2 10.1-16.25Q7.25-1.9 7.25-0.85L7.25-0.85 7.3-0.15Q6.6 0.2 5.1 0.2L5.1 0.2Q4.6 0.2 4.38 0.08 4.15-0.05 4.15-0.55L4.15-0.55Q4.15-0.95 4.45-2.35L4.45-2.35 7.6-16.9Q9.05-23.35 9.93-27.53 10.8-31.7 10.8-32.4L10.8-32.4Q10.8-33.2 9.55-33.2L9.55-33.2 8-33.1 6.65-33.05Q6.05-33.05 6.05-33.35L6.05-33.35Q6.05-33.6 6.23-34.23 6.4-34.85 6.7-35.35L6.7-35.35Q12.55-35 20-35L20-35Q25.65-35 27.68-35.2 29.7-35.4 31.1-36.25L31.1-36.25ZM81.26-17.85Q81.46-17.8 81.61-17.55 81.76-17.3 81.76-17L81.76-17Q81.76-15.95 80.78-14.98 79.81-14 78.23-13.4 76.66-12.8 75.06-12.8L75.06-12.8Q72.56-12.8 70.78-14.1 69.01-15.4 68.51-17.75L68.51-17.75Q66.26-17.5 64.38-14.9 62.51-12.3 61.76-9.25L61.76-9.25Q61.66-8.75 61.01-6.18 60.36-3.6 59.76-0.1L59.76-0.1Q59.71 0.05 59.63 0.13 59.56 0.2 59.31 0.2L59.31 0.2Q58.96 0.2 58.26-0.1 57.56-0.4 57.56-0.75L57.56-0.75Q57.56-1.45 57.81-2.6L57.81-2.6Q60.86-16.7 61.76-20.05L61.76-20.05Q61.86-20.5 61.98-20.65 62.11-20.8 62.41-20.8L62.41-20.8Q62.61-20.8 63.26-20.48 63.91-20.15 64.31-19.8L64.31-19.8 63.41-16.9 63.11-15.9Q64.26-17.7 65.76-18.8 67.26-19.9 68.96-19.9L68.96-19.9Q69.46-19.9 69.96-19.8 70.46-19.7 70.66-19.55L70.66-19.55Q70.66-17.1 71.93-15.93 73.21-14.75 75.51-14.75L75.51-14.75Q77.56-14.75 78.91-15.45 80.26-16.15 81.26-17.85L81.26-17.85ZM131.12-17.65Q131.62-17.5 131.62-16.65L131.62-16.65Q131.62-15.4 130.62-14.08 129.62-12.75 127.89-11.9 126.17-11.05 124.12-11.05L124.12-11.05Q121.37-11.05 119.27-12.55L119.27-12.55Q118.97-11.1 118.52-9.6L118.52-9.6Q118.37-9.05 117.87-7.08 117.37-5.1 117.17-3.55L117.17-3.55Q116.82-2.75 115.77-1.83 114.72-0.9 113.27-0.25 111.82 0.4 110.42 0.4L110.42 0.4Q108.87 0.4 107.42-0.4 105.97-1.2 105.04-2.55 104.12-3.9 104.12-5.55L104.12-5.55Q104.82-7.65 105.27-9.5 105.72-11.35 106.12-13.25L106.12-13.25 106.62-15.75Q106.87-16.9 107.97-18.03 109.07-19.15 110.64-19.88 112.22-20.6 113.82-20.6L113.82-20.6Q114.42-20.6 115.52-20.4L115.52-20.4Q115.67-21.55 116.04-22 116.42-22.45 117.27-22.45L117.27-22.45Q117.77-22.45 118.42-22.3L118.42-22.3Q118.17-20.9 118.17-19.9L118.17-19.9Q118.17-17 119.92-15 121.67-13 124.67-13L124.67-13Q126.92-13 128.54-14.2 130.17-15.4 131.12-17.65L131.12-17.65ZM114.97-4.4Q115.37-6.4 116.12-8.95L116.12-8.95Q117.12-12.3 117.42-14.35L117.42-14.35Q116.32-15.75 115.92-17.75L115.92-17.75Q115.92-17.95 115.84-18.07 115.77-18.2 115.52-18.25L115.52-18.25Q114.77-18.55 113.82-18.55L113.82-18.55Q111.97-18.55 110.62-17.55 109.27-16.55 108.92-15.15L108.92-15.15Q108.77-14.55 107.82-10.45L107.82-10.45Q107.37-8.05 106.72-5.7L106.72-5.7Q106.72-3.85 107.97-2.83 109.22-1.8 110.62-1.8L110.62-1.8Q111.82-1.8 113.19-2.65 114.57-3.5 114.97-4.4L114.97-4.4ZM178.78-12.2Q179.28-12.2 179.5-11.78 179.73-11.35 179.73-10.8L179.73-10.8Q179.73-9 177.83-6.25 175.93-3.5 173-1.45 170.08 0.6 167.23 0.6L167.23 0.6Q165.43 0.6 164.45-0.3 163.48-1.2 163.48-3.05L163.48-3.05Q163.48-5.6 164.88-9.98 166.28-14.35 167.43-17.25L167.43-17.25Q167.23-17.55 167.03-17.55L167.03-17.55Q166.83-17.55 166.58-17.4L166.58-17.4Q165.68-16.85 163.63-14.95 161.58-13.05 159.63-10.95 157.68-8.85 156.98-7.55L156.98-7.55Q156.18-5.4 155.98-4.83 155.78-4.25 155.58-2.95L155.58-2.95 155.13-0.7Q155.08-0.55 155.03-0.33 154.98-0.1 154.9-0.05 154.83 0 154.68 0L154.68 0Q154.23 0 153.5-0.1 152.78-0.2 152.78-0.4L152.78-0.4Q152.78-1 153.13-2.35 153.48-3.7 153.83-4.8 154.18-5.9 154.38-6.5L154.38-6.5 154.83-7.9Q156.28-12.9 156.8-15.18 157.33-17.45 157.83-20.25L157.83-20.25Q157.88-20.75 158.53-20.75L158.53-20.75Q158.98-20.75 159.55-20.53 160.13-20.3 160.23-19.9L160.23-19.9Q160.03-19 159.5-16.85 158.98-14.7 158.23-12.1L158.23-12.1Q161.13-15.35 164.25-18 167.38-20.65 168.43-20.65L168.43-20.65Q168.93-20.65 169.63-20.15 170.33-19.65 170.48-19.2L170.48-19.2Q168.88-14.9 167.43-9.83 165.98-4.75 165.98-3.15L165.98-3.15Q165.98-1.4 167.98-1.4L167.98-1.4Q170.93-1.4 173.95-4.7 176.98-8 178.78-12.2L178.78-12.2ZM223.09-8.3Q223.34-7.95 223.34-7.45L223.34-7.45Q223.34-7.05 223.19-6.75 223.04-6.45 222.69-6L222.69-6Q221.39-4.45 219.06-2.93 216.74-1.4 214.19-0.45 211.64 0.5 209.74 0.5L209.74 0.5Q207.59 0.5 206.16-0.83 204.74-2.15 204.74-4.8L204.74-4.8Q204.74-8.15 207.14-17.4L207.14-17.4 201.84-17.2Q201.74-17.25 201.56-17.38 201.39-17.5 201.34-17.6L201.34-17.6Q201.49-17.85 201.89-18.6 202.29-19.35 202.59-19.65L202.59-19.65 207.74-19.6Q209.39-25.7 211.54-32.15L211.54-32.15Q212.44-32.85 213.84-33.68 215.24-34.5 215.54-34.5L215.54-34.5Q215.99-34.3 216.09-33.95L216.09-33.95Q215.19-33.6 214.69-33.02 214.19-32.45 213.69-31.15L213.69-31.15Q212.24-27.45 210.19-19.6L210.19-19.6 222.94-19.55 222.99-18.75Q222.99-18.35 222.84-18.2 222.69-18.05 222.14-18L222.14-18Q221.44-17.95 209.64-17.5L209.64-17.5Q207.34-8.1 207.34-4.95L207.34-4.95Q207.34-3.2 208.19-2.38 209.04-1.55 210.79-1.55L210.79-1.55Q215.89-1.55 223.09-8.3L223.09-8.3ZM247.7-9.6L248.1-11.95Q250.2-11.95 251.8-11.9L251.8-11.9Q256.8-11.8 260.05-11.8L260.05-11.8Q262.6-11.8 263.6-11.85L263.6-11.85 263.05-9.6Q261.9-9.7 258.5-9.7L258.5-9.7 251.7-9.65Q248.6-9.65 247.7-9.6L247.7-9.6ZM328.51-35.15Q328.81-35.15 329.08-34.93 329.36-34.7 329.51-34.4L329.51-34.4Q329.41-34.2 328.81-32.88 328.21-31.55 328.11-30.7L328.11-30.7 327.61-30.75Q327.41-31.5 327.11-31.85 326.81-32.2 326.01-32.35L326.01-32.35Q324.56-32.65 320.16-32.88 315.76-33.1 313.11-33.1L313.11-33.1Q311.86-33.1 311.48-32.95 311.11-32.8 310.86-32.25L310.86-32.25Q309.26-27.95 306.91-19.75L306.91-19.75 312.41-19.75Q317.36-19.75 319.66-19.9 321.96-20.05 324.21-20.65L324.21-20.65 324.51-20.4Q324.31-20 324.16-19.43 324.01-18.85 323.91-18L323.91-18Q323.81-17.45 323.16-17.45L323.16-17.45 306.31-17.45Q303.81-8 303.81-4.7L303.81-4.7Q303.81-2.75 305.11-2.18 306.41-1.6 309.61-1.6L309.61-1.6Q322.11-1.6 326.81-6L326.81-6Q327.01-6 327.21-5.7L327.21-5.7Q326.81-5.25 326.56-3.88 326.31-2.5 326.26-2.2L326.26-2.2Q326.11-1.65 325.61-1.28 325.11-0.9 324.36-0.75L324.36-0.75Q320.71 0 317.61 0.33 314.51 0.65 311.21 0.65L311.21 0.65Q305.31 0.65 303.11-0.28 300.91-1.2 300.91-3.1L300.91-3.1Q300.91-4.45 301.68-8.03 302.46-11.6 303.86-17.45L303.86-17.45 302.61-17.45Q301.61-17.45 301.61-17.95L301.61-17.95Q301.61-18.35 302.16-19.05 302.71-19.75 303.16-19.75L303.16-19.75 304.46-19.75 304.76-20.95Q305.01-22 305.83-25.48 306.66-28.95 306.98-30.7 307.31-32.45 307.16-32.75L307.16-32.75Q307.01-33 306.61-33L306.61-33Q301.06-33 298.56-32.2L298.56-32.2 298.36-32.25Q298.31-32.95 298.61-34.08 298.91-35.2 299.16-35.45L299.16-35.45Q303.86-35.1 308.66-35.1L308.66-35.1 328.51-35.15ZM384.12-12.2Q384.62-12.2 384.84-11.78 385.07-11.35 385.07-10.8L385.07-10.8Q385.07-9 383.17-6.25 381.27-3.5 378.34-1.45 375.42 0.6 372.57 0.6L372.57 0.6Q370.77 0.6 369.79-0.3 368.82-1.2 368.82-3.05L368.82-3.05Q368.82-5.6 370.22-9.98 371.62-14.35 372.77-17.25L372.77-17.25Q372.57-17.55 372.37-17.55L372.37-17.55Q372.17-17.55 371.92-17.4L371.92-17.4Q371.02-16.85 368.97-14.95 366.92-13.05 364.97-10.95 363.02-8.85 362.32-7.55L362.32-7.55Q361.52-5.4 361.32-4.83 361.12-4.25 360.92-2.95L360.92-2.95 360.47-0.7Q360.42-0.55 360.37-0.33 360.32-0.1 360.24-0.05 360.17 0 360.02 0L360.02 0Q359.57 0 358.84-0.1 358.12-0.2 358.12-0.4L358.12-0.4Q358.12-1 358.47-2.35 358.82-3.7 359.17-4.8 359.52-5.9 359.72-6.5L359.72-6.5 360.17-7.9Q361.62-12.9 362.14-15.18 362.67-17.45 363.17-20.25L363.17-20.25Q363.22-20.75 363.87-20.75L363.87-20.75Q364.32-20.75 364.89-20.53 365.47-20.3 365.57-19.9L365.57-19.9Q365.37-19 364.84-16.85 364.32-14.7 363.57-12.1L363.57-12.1Q366.47-15.35 369.59-18 372.72-20.65 373.77-20.65L373.77-20.65Q374.27-20.65 374.97-20.15 375.67-19.65 375.82-19.2L375.82-19.2Q374.22-14.9 372.77-9.83 371.32-4.75 371.32-3.15L371.32-3.15Q371.32-1.4 373.32-1.4L373.32-1.4Q376.27-1.4 379.29-4.7 382.32-8 384.12-12.2L384.12-12.2ZM445.08-52.9Q447.98-52.9 449.85-51.88 451.73-50.85 452.18-49.2L452.18-49.2 452.18-48.75Q449.33-50.15 446.38-50.15L446.38-50.15Q440.33-50.15 435.7-44.5 431.08-38.85 427.68-26.7L427.68-26.7Q426.23-21.55 424.68-14.48 423.13-7.4 423.13-4.7L423.13-4.7Q423.13-3.45 423.58-2.78 424.03-2.1 425.18-2.1L425.18-2.1Q426.58-2.1 428.33-3.08 430.08-4.05 431.8-6 433.53-7.95 434.83-10.7L434.83-10.7Q435.53-10.7 435.53-9.5L435.53-9.5Q435.53-7.65 433.83-5.35 432.13-3.05 429.63-1.4 427.13 0.25 424.83 0.25L424.83 0.25Q423.23 0.25 422.23-0.6 421.23-1.45 420.83-3L420.83-3Q419.68-1.55 418-0.58 416.33 0.4 414.83 0.4L414.83 0.4Q413.48 0.4 412.13-0.45 410.78-1.3 409.93-2.58 409.08-3.85 409.08-5.05L409.08-5.05Q410.33-9.25 411.68-15.8L411.68-15.8Q411.88-16.9 413.1-18.15 414.33-19.4 416.08-20.23 417.83-21.05 419.48-21.05L419.48-21.05Q421.38-21.05 423.38-19.95L423.38-19.95Q424.33-23.8 425.33-27.3L425.33-27.3Q427.93-36.3 430.78-41.9 433.63-47.5 437.1-50.2 440.58-52.9 445.08-52.9L445.08-52.9ZM420.98-8.15L421.28-9.6Q421.88-13 422.93-17.8L422.93-17.8Q421.23-18.9 419.53-18.9L419.53-18.9Q417.78-18.9 416.18-17.88 414.58-16.85 413.93-15L413.93-15Q413.58-14 412.78-9.9L412.78-9.9Q412.28-7.4 411.73-5.2L411.73-5.2Q411.73-4.05 412.83-2.85 413.93-1.65 415.18-1.65L415.18-1.65Q416.18-1.65 417.35-2.43 418.53-3.2 419.55-4.67 420.58-6.15 420.98-8.15L420.98-8.15ZM516.45 0.65Q514.2 0.65 512.5 0.28 510.8-0.1 508.5-0.8L508.5-0.8Q507.5-1.15 506.5-1.43 505.5-1.7 504.65-1.75L504.65-1.75Q504-1.8 503.7-1.9 503.4-2 502.6-2.5L502.6-2.5Q503.1-3.15 503.35-3.58 503.6-4 503.75-4.8L503.75-4.8Q504.65-8.8 506.8-19.75 508.95-30.7 508.95-32.15L508.95-32.15Q508.95-33.1 507.9-33.1L507.9-33.1Q507.1-33.1 504.85-32.75L504.85-32.75Q500.9-32.2 499.8-32.2L499.8-32.2Q498.7-32.2 498.17-32.6 497.65-33 497.65-34.05L497.65-34.05Q497.65-34.7 497.9-35.45L497.9-35.45Q498.85-35 499.6-34.85 500.35-34.7 502.1-34.7L502.1-34.7Q503.4-34.7 505.52-34.8 507.65-34.9 508.7-34.95L508.7-34.95Q513.7-35.25 515.75-35.25L515.75-35.25Q524.5-35.25 529.75-31.45 535-27.65 535-18.9L535-18.9Q535-12.95 532.52-8.5 530.05-4.05 525.82-1.7 521.6 0.65 516.45 0.65L516.45 0.65ZM516.45-1.5Q520.8-1.5 524.37-3.78 527.95-6.05 530.05-10.1 532.15-14.15 532.15-19.3L532.15-19.3Q532.15-27 527.62-30.2 523.1-33.4 515.95-33.4L515.95-33.4Q513.85-33.4 513.05-33.1 512.25-32.8 512.05-31.95L512.05-31.95Q509.65-20 507.2-7.35L507.2-7.35Q506.85-5.8 506.85-5.25L506.85-5.25Q506.85-4.6 507.7-4.05L507.7-4.05Q509.35-2.9 511.7-2.2 514.05-1.5 516.45-1.5L516.45-1.5ZM588.66-11.95Q589.56-11.8 589.56-10.95L589.56-10.95Q589.56-8.95 586.98-6.28 584.41-3.6 580.91-1.68 577.41 0.25 575.06 0.25L575.06 0.25Q572.81 0.25 571.16-0.93 569.51-2.1 568.63-3.55 567.76-5 567.76-5.7L567.76-5.7Q568.56-8.55 569.51-13.6L569.51-13.6 570.06-16.4Q570.26-17.4 571.51-18.48 572.76-19.55 574.31-20.28 575.86-21 576.81-21L576.81-21Q577.56-21 578.63-20.53 579.71-20.05 580.53-19.05 581.36-18.05 581.36-16.5L581.36-16.5Q581.36-14.7 580.16-13.1 578.96-11.5 576.61-10.5 574.26-9.5 570.96-9.5L570.96-9.5 570.26-6.15Q570.26-5.7 570.78-4.65 571.31-3.6 572.48-2.75 573.66-1.9 575.46-1.9L575.46-1.9Q577.86-1.9 580.51-3.48 583.16-5.05 585.36-7.4 587.56-9.75 588.66-11.95L588.66-11.95ZM576.41-18.95Q575.81-18.95 574.86-18.45 573.91-17.95 573.13-17.2 572.36-16.45 572.21-15.8L572.21-15.8Q571.71-13.55 571.31-11.25L571.31-11.25Q575.16-11.4 577.11-12.78 579.06-14.15 579.06-15.9L579.06-15.9Q579.06-17.15 578.16-18.05 577.26-18.95 576.41-18.95L576.41-18.95ZM624.92-22.5Q627.87-21.6 629.27-20.28 630.67-18.95 630.67-16.3L630.67-16.3Q630.67-14.25 629.69-12.48 628.72-10.7 626.72-8.65 624.72-6.6 620.07-2.35L620.07-2.35Q619.22-1.6 617.52 0L617.52 0 615.47 0Q615.67-0.8 615.67-1.15L615.67-1.15 615.62-14.2 615.62-15.95Q615.62-17.45 615.39-17.88 615.17-18.3 614.27-18.3L614.27-18.3 610.82-18.35Q610.82-19 611.17-19.35L611.17-19.35Q612.97-19.55 613.84-19.78 614.72-20 615.42-20.3 616.12-20.6 616.57-20.8L616.57-20.8Q617.72-20.4 618.02-19.35 618.32-18.3 618.32-16.55L618.32-16.55Q618.32-12.05 618.17-7.7L618.17-7.7Q618.17-6.95 618.07-2.65L618.07-2.65Q623.77-8.6 625.82-11.65 627.87-14.7 627.87-16.85L627.87-16.85Q627.87-20.1 624.42-22.25L624.42-22.25 624.92-22.5ZM682.48-11.95Q683.38-11.8 683.38-10.95L683.38-10.95Q683.38-8.95 680.8-6.28 678.23-3.6 674.73-1.68 671.23 0.25 668.88 0.25L668.88 0.25Q666.63 0.25 664.98-0.93 663.33-2.1 662.45-3.55 661.58-5 661.58-5.7L661.58-5.7Q662.38-8.55 663.33-13.6L663.33-13.6 663.88-16.4Q664.08-17.4 665.33-18.48 666.58-19.55 668.13-20.28 669.68-21 670.63-21L670.63-21Q671.38-21 672.45-20.53 673.53-20.05 674.35-19.05 675.18-18.05 675.18-16.5L675.18-16.5Q675.18-14.7 673.98-13.1 672.78-11.5 670.43-10.5 668.08-9.5 664.78-9.5L664.78-9.5 664.08-6.15Q664.08-5.7 664.6-4.65 665.13-3.6 666.3-2.75 667.48-1.9 669.28-1.9L669.28-1.9Q671.68-1.9 674.33-3.48 676.98-5.05 679.18-7.4 681.38-9.75 682.48-11.95L682.48-11.95ZM670.23-18.95Q669.63-18.95 668.68-18.45 667.73-17.95 666.95-17.2 666.18-16.45 666.03-15.8L666.03-15.8Q665.53-13.55 665.13-11.25L665.13-11.25Q668.98-11.4 670.93-12.78 672.88-14.15 672.88-15.9L672.88-15.9Q672.88-17.15 671.98-18.05 671.08-18.95 670.23-18.95L670.23-18.95ZM728.48-14Q728.98-14 729.28-13.53 729.58-13.05 729.58-12.35L729.58-12.35Q729.58-11.45 729.08-10.45L729.08-10.45Q727.68-7.5 725.08-5.03 722.48-2.55 719.46-1.1 716.43 0.35 713.83 0.35L713.83 0.35Q708.53 0.35 708.53-5.8L708.53-5.8Q708.53-10.1 710.88-19.63 713.23-29.15 717.68-44.9L717.68-44.9Q718.63-48.15 719.76-49.7 720.88-51.25 722.33-51.25L722.33-51.25Q723.38-51.25 724.36-50.53 725.33-49.8 725.98-48.3 726.63-46.8 726.63-44.6L726.63-44.6Q726.63-41.05 724.96-35.6 723.28-30.15 719.93-24.1 716.58-18.05 711.88-12.9L711.88-12.9Q711.03-8.5 711.03-6.35L711.03-6.35Q711.03-3.95 712.01-2.93 712.98-1.9 714.73-1.9L714.73-1.9Q717.18-1.9 719.96-3.55 722.73-5.2 725.03-8 727.33-10.8 728.48-14L728.48-14ZM718.98-41.75Q714.78-26.65 712.63-16.7L712.63-16.7Q716.33-21.35 719.01-26.85 721.68-32.35 723.01-37.15 724.33-41.95 724.33-44.7L724.33-44.7Q724.33-46.25 723.88-47.38 723.43-48.5 722.38-48.5L722.38-48.5Q721.78-48.5 720.96-47.25 720.13-46 718.98-41.75L718.98-41.75ZM780.34-17.65Q780.84-17.5 780.84-16.65L780.84-16.65Q780.84-15.4 779.84-14.08 778.84-12.75 777.12-11.9 775.39-11.05 773.34-11.05L773.34-11.05Q770.59-11.05 768.49-12.55L768.49-12.55Q768.19-11.1 767.74-9.6L767.74-9.6Q767.59-9.05 767.09-7.08 766.59-5.1 766.39-3.55L766.39-3.55Q766.04-2.75 764.99-1.83 763.94-0.9 762.49-0.25 761.04 0.4 759.64 0.4L759.64 0.4Q758.09 0.4 756.64-0.4 755.19-1.2 754.27-2.55 753.34-3.9 753.34-5.55L753.34-5.55Q754.04-7.65 754.49-9.5 754.94-11.35 755.34-13.25L755.34-13.25 755.84-15.75Q756.09-16.9 757.19-18.03 758.29-19.15 759.87-19.88 761.44-20.6 763.04-20.6L763.04-20.6Q763.64-20.6 764.74-20.4L764.74-20.4Q764.89-21.55 765.27-22 765.64-22.45 766.49-22.45L766.49-22.45Q766.99-22.45 767.64-22.3L767.64-22.3Q767.39-20.9 767.39-19.9L767.39-19.9Q767.39-17 769.14-15 770.89-13 773.89-13L773.89-13Q776.14-13 777.77-14.2 779.39-15.4 780.34-17.65L780.34-17.65ZM764.19-4.4Q764.59-6.4 765.34-8.95L765.34-8.95Q766.34-12.3 766.64-14.35L766.64-14.35Q765.54-15.75 765.14-17.75L765.14-17.75Q765.14-17.95 765.07-18.07 764.99-18.2 764.74-18.25L764.74-18.25Q763.99-18.55 763.04-18.55L763.04-18.55Q761.19-18.55 759.84-17.55 758.49-16.55 758.14-15.15L758.14-15.15Q757.99-14.55 757.04-10.45L757.04-10.45Q756.59-8.05 755.94-5.7L755.94-5.7Q755.94-3.85 757.19-2.83 758.44-1.8 759.84-1.8L759.84-1.8Q761.04-1.8 762.42-2.65 763.79-3.5 764.19-4.4L764.19-4.4ZM828.35-10.25Q829.1-9.8 829.1-8.75L829.1-8.75Q829.1-8.15 828.88-7.7 828.65-7.25 828.25-6.75L828.25-6.75Q825.8-3.8 821.85-2.23 817.9-0.65 814.48-0.18 811.05 0.3 808.9 0.3L808.9 0.3Q807.6 0.3 807.1 0.05 806.6-0.2 806.6-0.95L806.6-0.95Q806.6-1.35 806.75-1.8L806.75-1.8Q808.15-1.55 808.7-1.55L808.7-1.55Q811.2-1.55 812.85-3.43 814.5-5.3 815.43-7.93 816.35-10.55 817.3-14.4L817.3-14.4Q817.45-14.85 817.65-15.75L817.65-15.75Q817.65-16.4 816.63-17.35 815.6-18.3 814.9-18.3L814.9-18.3Q814.25-18.3 812.85-17.48 811.45-16.65 810.13-15.08 808.8-13.5 808.2-11.45L808.2-11.45Q806.75-6.35 805.73-1.95 804.7 2.45 803.45 8.35L803.45 8.35Q800.85 20.55 798.85 28.35L798.85 28.35Q798.5 29.7 797.95 30.38 797.4 31.05 796.65 31.33 795.9 31.6 794.2 31.95L794.2 31.95Q792.05 32.35 790.3 32.85L790.3 32.85 789.75 32.6Q792.55 31.35 793.85 30.2 795.15 29.05 795.8 27.38 796.45 25.7 797.45 21.7L797.45 21.7Q803.85-3.45 808.85-24.55L808.85-24.55Q808.95-25 809.15-25.18 809.35-25.35 809.65-25.45L809.65-25.45Q810.15-25.65 810.85-25.98 811.55-26.3 811.8-26.35L811.8-26.35Q811.95-26.3 812.25-25.9L812.25-25.9Q812.15-25.55 812-25.35L812-25.35Q811.6-24.45 810-18.9L810-18.9Q809.55-17.4 809.45-17.05L809.45-17.05Q810.8-18.6 812.68-19.8 814.55-21 815.65-21L815.65-21Q816.55-21 817.75-20.18 818.95-19.35 819.8-18.2 820.65-17.05 820.65-16.1L820.65-16.1 820.05-13.8Q819.3-10.75 818.63-8.7 817.95-6.65 816.65-4.75 815.35-2.85 813.35-1.7L813.35-1.7Q816.3-2.1 818.6-2.9 820.9-3.7 823.3-5.43 825.7-7.15 828.35-10.25L828.35-10.25ZM874.46-11.95Q875.36-11.8 875.36-10.95L875.36-10.95Q875.36-8.95 872.79-6.28 870.21-3.6 866.71-1.68 863.21 0.25 860.86 0.25L860.86 0.25Q858.61 0.25 856.96-0.93 855.31-2.1 854.44-3.55 853.56-5 853.56-5.7L853.56-5.7Q854.36-8.55 855.31-13.6L855.31-13.6 855.86-16.4Q856.06-17.4 857.31-18.48 858.56-19.55 860.11-20.28 861.66-21 862.61-21L862.61-21Q863.36-21 864.44-20.53 865.51-20.05 866.34-19.05 867.16-18.05 867.16-16.5L867.16-16.5Q867.16-14.7 865.96-13.1 864.76-11.5 862.41-10.5 860.06-9.5 856.76-9.5L856.76-9.5 856.06-6.15Q856.06-5.7 856.59-4.65 857.11-3.6 858.29-2.75 859.46-1.9 861.26-1.9L861.26-1.9Q863.66-1.9 866.31-3.48 868.96-5.05 871.16-7.4 873.36-9.75 874.46-11.95L874.46-11.95ZM862.21-18.95Q861.61-18.95 860.66-18.45 859.71-17.95 858.94-17.2 858.16-16.45 858.01-15.8L858.01-15.8Q857.51-13.55 857.11-11.25L857.11-11.25Q860.96-11.4 862.91-12.78 864.86-14.15 864.86-15.9L864.86-15.9Q864.86-17.15 863.96-18.05 863.06-18.95 862.21-18.95L862.21-18.95ZM921.92-17.85Q922.12-17.8 922.27-17.55 922.42-17.3 922.42-17L922.42-17Q922.42-15.95 921.45-14.98 920.47-14 918.9-13.4 917.32-12.8 915.72-12.8L915.72-12.8Q913.22-12.8 911.45-14.1 909.67-15.4 909.17-17.75L909.17-17.75Q906.92-17.5 905.05-14.9 903.17-12.3 902.42-9.25L902.42-9.25Q902.32-8.75 901.67-6.18 901.02-3.6 900.42-0.1L900.42-0.1Q900.37 0.05 900.3 0.13 900.22 0.2 899.97 0.2L899.97 0.2Q899.62 0.2 898.92-0.1 898.22-0.4 898.22-0.75L898.22-0.75Q898.22-1.45 898.47-2.6L898.47-2.6Q901.52-16.7 902.42-20.05L902.42-20.05Q902.52-20.5 902.65-20.65 902.77-20.8 903.07-20.8L903.07-20.8Q903.27-20.8 903.92-20.48 904.57-20.15 904.97-19.8L904.97-19.8 904.07-16.9 903.77-15.9Q904.92-17.7 906.42-18.8 907.92-19.9 909.62-19.9L909.62-19.9Q910.12-19.9 910.62-19.8 911.12-19.7 911.32-19.55L911.32-19.55Q911.32-17.1 912.6-15.93 913.87-14.75 916.17-14.75L916.17-14.75Q918.22-14.75 919.57-15.45 920.92-16.15 921.92-17.85L921.92-17.85Z" opacity="1" transform="matrix(1,0,0,1,0,0)" fill="#ffffff" class="slogan-text-1" data-fill-palette-color="quaternary" id="text-1"></path></svg></g></svg></g></svg></g></svg></g><g transform="matrix(1,0,0,1,61.146274358180484,0)"><svg viewBox="0 0 90.86589251079614 123.46604656845716" height="123.46604656845716" width="90.86589251079614"><g><svg xmlns="http://www.w3.org/2000/svg" xmlns:xlink="http://www.w3.org/1999/xlink" xml:space="preserve" version="1.1" style="shape-rendering:geometricPrecision;text-rendering:geometricPrecision;image-rendering:optimizeQuality;" viewBox="14.489999999999995 1.7500000000000107 71.02 96.49999999999999" x="0" y="0" fill-rule="evenodd" clip-rule="evenodd" height="123.46604656845716" width="90.86589251079614" class="icon-icon-0" data-fill-palette-color="quaternary" id="icon-0"><g fill="#ffffff" data-fill-palette-color="quaternary"><path class="" d="M56.65 59.08l0 3.13c0 3.66-2.99 6.65-6.65 6.65l0 0c-3.66 0-6.65-2.99-6.65-6.65l0-3.13c2.08 0.72 4.32 1.12 6.65 1.12 2.33 0 4.57-0.4 6.65-1.12z m-18.9 3.39l1.73 0c0.14 5.67 4.82 10.27 10.52 10.27l0 0c5.7 0 10.38-4.6 10.52-10.27l1.73 0c12.79 0 23.26 10.47 23.26 23.27l0 7.29c0 2.88-2.34 5.22-5.22 5.22l-60.58 0c-2.88 0-5.22-2.34-5.22-5.22l0-7.29c0-12.8 10.47-23.27 23.26-23.27z m2.2 15.94c0.78-0.73 2-0.68 2.73 0.1 0.72 0.78 0.67 2-0.11 2.72l-4.55 4.22 4.55 4.21c0.78 0.72 0.83 1.94 0.11 2.72-0.73 0.78-1.95 0.83-2.73 0.11l-6.07-5.63-0.11-0.11c-0.72-0.78-0.67-1.99 0.11-2.72l6.07-5.62z m10.12-0.38c0.28-1.02 1.35-1.62 2.37-1.34 1.03 0.28 1.63 1.35 1.35 2.37l-3.86 13.8c-0.28 1.02-1.35 1.63-2.37 1.34-1.03-0.28-1.63-1.34-1.35-2.37l3.86-13.8z m7.36 3.2c-0.78-0.72-0.83-1.94-0.11-2.72 0.73-0.78 1.95-0.83 2.73-0.1l6.07 5.62c0.78 0.73 0.83 1.94 0.11 2.72l-0.11 0.11-6.07 5.63c-0.78 0.72-2 0.67-2.73-0.11-0.72-0.78-0.67-2 0.11-2.72l4.55-4.21-4.55-4.22z m-20.25-58.91c5.75 0 9.29 0.6 11.97-2.59 0.71-0.84 1.65-1.28 2.76-1.28 1.1 0 2.05 0.44 2.76 1.28 1.78 2.12 4.15 2.59 8.15 2.59 2.01 0 3.66 1.64 3.66 3.66l0 13.87c0 9.06-7.42 16.48-16.48 16.48l0 0c-9.06 0-16.48-7.42-16.48-16.48l0-13.87c0-2.02 1.65-3.66 3.66-3.66z m18.14 22.6c0.81-0.7 2.03-0.61 2.72 0.2 0.7 0.8 0.61 2.02-0.19 2.72-2.47 2.13-5.14 3.19-7.85 3.19-2.71 0-5.38-1.06-7.85-3.19-0.8-0.7-0.89-1.92-0.19-2.72 0.69-0.81 1.91-0.9 2.72-0.2 1.73 1.5 3.54 2.24 5.32 2.24 1.78 0 3.59-0.74 5.32-2.24z m-32.84 11.63l0-27.28c0-15.14 12.39-27.52 27.52-27.52l0 0c15.13 0 27.52 12.38 27.52 27.52l0 27.28-15.92 0c5.28-3.69 8.75-9.81 8.75-16.7l0-13.87c0-4.15-3.38-7.53-7.53-7.53-1.54 0-4.09 0.1-5.19-1.21-1.45-1.72-3.48-2.67-5.72-2.67-2.25 0.01-4.28 0.95-5.72 2.67-0.29 0.34-0.59 0.61-0.99 0.79-1.59 0.73-6.21 0.42-8.02 0.42-4.15 0-7.53 3.38-7.53 7.53l0 13.87c0 6.9 3.47 13.01 8.75 16.7l-15.92 0z" fill="#ffffff" data-fill-palette-color="quaternary"></path></g></svg></g></svg></g><g></g></svg></g></svg></g></svg></g></svg></g><defs></defs></svg><rect width="333.90454557049503" height="333.90454557049503" fill="none" stroke="none" visibility="hidden"></rect></g></svg></g></svg>